<svg xmlns="http://www.w3.org/2000/svg" width="24" height="24" viewBox="0 0 24 24">
    <g fill="none" fill-rule="evenodd" stroke="#2B2B2B">
        <path stroke-width="1.5" d="M5.017 2.75h-.014a3.25 3.25 0 0 0-3.236 3.263l.045 10.874c.006 1.51.123 2.106.454 2.72.28.52.684.922 1.204 1.2.616.328 1.213.443 2.722.443h11.616c1.509 0 2.106-.115 2.722-.443.52-.278.924-.68 1.204-1.2.33-.614.448-1.21.454-2.72l.045-10.874V6a3.25 3.25 0 0 0-3.25-3.25H5.017z"/>
        <path stroke-width="1.5" d="M12 7.75a4.25 4.25 0 1 0 0 8.5 4.25 4.25 0 0 0 0-8.5z"/>
        <path stroke-linejoin="round" d="M17.5 6h1a.5.5 0 1 1 0 1h-1a.5.5 0 1 1 0-1z"/>
    </g>
</svg>
